<svg viewBox="0 0 24 24" fill="none" xmlns="http://www.w3.org/2000/svg">
  <path
    fill-rule="evenodd"
    clip-rule="evenodd"
    d="M5.61728 5C4.24604 5 3 6.22761 3 7.97241V16.0276C3 17.7724 4.24604 19 5.61728 19H18.4787C19.8543 19 21.0741 17.7764 20.9966 16.0731C20.9959 16.0579 20.9955 16.0428 20.9955 16.0276V7.97241C20.9955 6.22761 19.7495 5 18.3783 5H5.61728ZM1 7.97241C1 5.30343 2.96932 3 5.61728 3H18.3783C21.0262 3 22.9955 5.30343 22.9955 7.97241V16.0061C23.1061 18.7062 21.1146 21 18.4787 21H5.61728C2.96932 21 1 18.6966 1 16.0276V7.97241Z"
    fill="currentColor"
  />
  <path
    fill-rule="evenodd"
    clip-rule="evenodd"
    d="M5.13017 7.50713C5.40247 7.02664 6.01273 6.85787 6.49322 7.13017L11.172 9.78172C11.7137 10.073 12.2867 10.073 12.8283 9.78172L17.5071 7.13017C17.9876 6.85787 18.5979 7.02664 18.8702 7.50713C19.1425 7.98762 18.9737 8.59788 18.4932 8.87018L13.8057 11.5267L13.7898 11.5355C12.6485 12.1551 11.3519 12.1551 10.2106 11.5355L10.1946 11.5267L5.50713 8.87018C5.02664 8.59788 4.85787 7.98762 5.13017 7.50713Z"
    fill="currentColor"
  />
</svg>
