<svg viewBox="0 0 34 34" fill="none" xmlns="http://www.w3.org/2000/svg">
  <path
    d="M30.1228 0C30.3577 0 30.5831 0.0933425 30.7492 0.259493C30.9154 0.425643 31.0087 0.650992 31.0087 0.885964C31.0087 1.12094 30.9154 1.34628 30.7492 1.51243C30.5831 1.67859 30.3577 1.77193 30.1228 1.77193C25.4449 1.77193 22.321 3.18061 20.6208 5.98646C23.2397 6.9433 25.4741 8.86584 27.0104 11.3837C27.8879 10.6881 28.7668 9.99404 29.647 9.30173C29.74 9.23175 29.8458 9.18077 29.9585 9.15168C30.0711 9.1226 30.1884 9.116 30.3036 9.13225C30.4189 9.1485 30.5298 9.18728 30.63 9.24638C30.7302 9.30548 30.8178 9.38375 30.8878 9.47671C30.9578 9.56967 31.0088 9.67551 31.0379 9.78817C31.0669 9.90084 31.0735 10.0181 31.0573 10.1333C31.041 10.2486 31.0023 10.3595 30.9432 10.4597C30.884 10.5599 30.8058 10.6475 30.7128 10.7175L27.8529 12.9776C28.6519 14.753 29.1131 16.6618 29.2129 18.6061L32.7807 18.6052C33.0156 18.6052 33.241 18.6986 33.4071 18.8647C33.5733 19.0309 33.6666 19.2562 33.6666 19.4912C33.6666 19.9457 33.3158 20.3772 32.7807 20.3772H29.2129C29.0835 22.779 28.4297 25.0232 27.3789 26.9581L30.6543 29.414C30.8423 29.555 30.9666 29.7649 30.9998 29.9975C31.0331 30.2301 30.9725 30.4664 30.8315 30.6543C30.5604 31.0158 30.0235 31.1593 29.5912 30.8315L26.4372 28.4651C24.2196 31.6369 20.7165 33.6666 16.8333 33.6666C12.9501 33.6666 9.4993 31.6369 7.22947 28.466L4.07543 30.8315C3.88746 30.9725 3.65117 31.0331 3.41856 30.9998C3.18595 30.9666 2.97607 30.8423 2.83508 30.6543C2.6941 30.4664 2.63357 30.2301 2.6668 29.9975C2.70003 29.7649 2.8243 29.555 3.01228 29.414L6.28769 26.9599C5.23693 25.024 4.58309 22.7799 4.45374 20.3772H0.885964C0.650992 20.3772 0.425643 20.2838 0.259493 20.1177C0.0933425 19.9515 0 19.7262 0 19.4912C0 19.0367 0.371219 18.6052 0.885964 18.6052H4.45374C4.56271 16.5879 5.04113 14.6813 5.81369 12.9758C4.02405 11.5583 3.10265 10.83 3.04949 10.7893C2.95513 10.7196 2.87556 10.6318 2.81538 10.5311C2.75521 10.4304 2.71564 10.3188 2.69896 10.2026C2.68228 10.0865 2.68882 9.96824 2.71822 9.85467C2.74761 9.7411 2.79927 9.6345 2.87019 9.54106C2.94111 9.44761 3.02988 9.36918 3.13136 9.31031C3.23283 9.25145 3.34498 9.21332 3.46131 9.19815C3.57763 9.18297 3.69582 9.19105 3.809 9.22191C3.92217 9.25277 4.0281 9.3058 4.12062 9.37793L6.65713 11.3855C8.19251 8.86673 10.4269 6.94419 13.0458 5.98734C11.3457 3.18061 8.22174 1.77193 3.54386 1.77193C3.30888 1.77193 3.08353 1.67859 2.91738 1.51243C2.75123 1.34628 2.65789 1.12094 2.65789 0.885964C2.65789 0.650992 2.75123 0.425643 2.91738 0.259493C3.08353 0.0933425 3.30888 0 3.54386 0C9.02088 0 12.8252 1.82952 14.8107 5.50272C16.1478 5.25225 17.5198 5.25225 18.8569 5.50272C20.8414 1.82952 24.6457 0 30.1228 0ZM7.26668 14.0797C6.52335 15.8339 6.20175 17.6245 6.20175 19.4912C6.20175 26.0358 10.5412 31.3587 15.9961 31.8566V17.6945C12.9865 17.512 10.3702 16.3283 7.26668 14.0797ZM26.4008 14.0771C23.2379 16.3513 20.6855 17.4889 17.7689 17.6883V31.8469C23.1777 31.294 27.4649 25.9968 27.4649 19.4912C27.4649 17.5474 27.0821 15.7099 26.4008 14.0771ZM16.8333 7.08771C13.2097 7.08771 9.99101 9.21402 8.06847 12.4708C11.2872 14.8399 13.8388 15.9473 16.8333 15.9473C19.8279 15.9473 22.3794 14.8399 25.5964 12.4717C23.6756 9.21491 20.4569 7.08771 16.8333 7.08771Z"
    fill="currentColor"
  />
</svg>
