<svg
  width="24"
  height="24"
  viewBox="0 0 24 24"
  fill="none"
  xmlns="http://www.w3.org/2000/svg"
>
  <path
    fill-rule="evenodd"
    clip-rule="evenodd"
    d="M14.5676 5.08865C14.2613 5.23717 13.99 5.57439 13.99 6.09756V7.80687C13.99 8.35916 13.5423 8.80688 12.99 8.80688H9.90999C5.7976 8.80688 2.18318 12.4294 2.00674 17.1327C3.9848 15.2062 6.56424 14.0999 9.35999 14.0999H12.99C13.5423 14.0999 13.99 14.5476 13.99 15.0999V17.7208C13.99 18.244 14.2613 18.5812 14.5676 18.7297C14.8737 18.8782 15.2175 18.8488 15.4942 18.5884C15.4941 18.5885 15.4942 18.5883 15.4942 18.5884L21.6345 12.7953C22.1522 12.2433 22.0799 11.4278 21.6684 11.0548L21.6538 11.0412L15.4944 5.23022C15.4943 5.23008 15.4945 5.23036 15.4944 5.23022C15.2177 4.96998 14.8737 4.94021 14.5676 5.08865ZM13.6949 3.28903C14.6811 2.8108 15.9323 2.8953 16.8656 3.77421L23.0197 9.58027C24.3562 10.8005 24.284 12.9305 23.0595 14.1991C23.0486 14.2103 23.0375 14.2212 23.0262 14.2319L16.8662 20.0436C15.933 20.9225 14.6812 21.0076 13.6949 20.5294C12.7087 20.0511 11.99 19.0209 11.99 17.7208V16.0999H9.35999C6.32777 16.0999 3.55849 17.7157 1.85454 20.5193C1.62164 20.9025 1.16212 21.0838 0.730314 20.9629C0.298508 20.8419 0 20.4483 0 19.9999V17.4929C0 11.6585 4.44679 6.80685 9.90999 6.80685H11.99V6.09756C11.99 4.79748 12.7087 3.76726 13.6949 3.28903Z"
    fill="currentColor"
  />
</svg>
