<svg
  width="24"
  height="24"
  viewBox="0 0 24 24"
  fill="none"
  xmlns="http://www.w3.org/2000/svg"
>
  <path
    d="M21.9954 20.0247H13.3562L21.895 11.8272C22.5982 11.1358 23 10.2469 23 9.25926C23 8.27161 22.5982 7.38272 21.895 6.69136L18.0776 3.03704C16.6712 1.65432 14.2603 1.65432 12.8539 3.03704L2.10502 13.4074C1.40183 14.0988 1 14.9877 1 15.9753C1 16.963 1.40183 17.8519 2.10502 18.5432L5.01826 21.3086C5.52055 21.8025 6.12329 22 6.82648 22H21.9954C22.5982 22 23 21.6049 23 21.0123C23 20.4198 22.4977 20.0247 21.9954 20.0247ZM6.82648 20.0247C6.72603 20.0247 6.52511 19.9259 6.42466 19.9259L3.51142 17.1605C3.21005 16.7654 3.00913 16.3704 3.00913 15.9753C3.00913 15.5802 3.21005 15.1852 3.51142 14.8889L9.63927 8.96296L14.3607 13.5062C14.5616 13.7037 14.7626 13.8025 15.0639 13.8025C15.3653 13.8025 15.5662 13.7037 15.7671 13.5062C16.1689 13.1111 16.1689 12.5185 15.7671 12.1235L11.0457 7.58025L14.1598 4.51852C14.5616 4.22222 15.0639 4.02469 15.4658 4.02469C15.8676 4.02469 16.3699 4.22222 16.6712 4.51852L20.4886 8.17284C20.79 8.46914 20.9909 8.8642 20.9909 9.25926C20.9909 9.65432 20.79 10.0494 20.4886 10.3457L10.4429 20.0247H6.82648Z"
    fill="currentColor"
  />
</svg>
