<svg viewBox="0 0 31 21" fill="none" xmlns="http://www.w3.org/2000/svg">
  <path
    d="M30.1868 9.91515C29.9182 9.54768 23.5177 0.917496 15.3432 0.917496C7.16862 0.917496 0.767854 9.54768 0.499521 9.91479C0.375531 10.0847 0.308716 10.2895 0.308716 10.4998C0.308716 10.7101 0.375531 10.915 0.499521 11.0849C0.767854 11.4523 7.16862 20.0825 15.3432 20.0825C23.5177 20.0825 29.9182 11.4523 30.1868 11.0851C30.311 10.9154 30.3779 10.7105 30.3779 10.5001C30.3779 10.2898 30.311 10.0849 30.1868 9.91515ZM15.3432 18.0999C9.32175 18.0999 4.10654 12.3719 2.56273 10.4993C4.10455 8.6251 9.30883 2.90007 15.3432 2.90007C21.3643 2.90007 26.5792 8.6271 28.1236 10.5007C26.5818 12.3748 21.3775 18.0999 15.3432 18.0999Z"
    fill="currentColor"
  />
  <path
    d="M15.3432 4.55226C12.0637 4.55226 9.39542 7.2205 9.39542 10.5C9.39542 13.7796 12.0637 16.4478 15.3432 16.4478C18.6228 16.4478 21.291 13.7796 21.291 10.5C21.291 7.2205 18.6228 4.55226 15.3432 4.55226ZM15.3432 14.4652C13.1567 14.4652 11.3781 12.6865 11.3781 10.5C11.3781 8.31362 13.1568 6.53489 15.3432 6.53489C17.5296 6.53489 19.3084 8.31362 19.3084 10.5C19.3084 12.6865 17.5297 14.4652 15.3432 14.4652Z"
    fill="currentColor"
  />
</svg>
