<svg viewBox="0 0 24 24" fill="currentColor" xmlns="http://www.w3.org/2000/svg">
  <path
    fill-rule="evenodd"
    clip-rule="evenodd"
    d="M12 4C7.58172 4 4 7.58172 4 12C4 16.4183 7.58172 20 12 20C16.4183 20 20 16.4183 20 12C20 7.58172 16.4183 4 12 4ZM2 12C2 6.47715 6.47715 2 12 2C17.5228 2 22 6.47715 22 12C22 17.5228 17.5228 22 12 22C6.47715 22 2 17.5228 2 12ZM12 5C12.5523 5 13 5.44772 13 6V13C13 13.5523 12.5523 14 12 14C11.4477 14 11 13.5523 11 13V6C11 5.44772 11.4477 5 12 5ZM12 16C12.5523 16 13 16.4477 13 17V18C13 18.5523 12.5523 19 12 19C11.4477 19 11 18.5523 11 18V17C11 16.4477 11.4477 16 12 16Z"
  />
</svg>
