<svg viewBox="0 0 24 24" fill="none" xmlns="http://www.w3.org/2000/svg">
  <path
    fill-rule="evenodd"
    clip-rule="evenodd"
    d="M5.61728 6C4.24604 6 3 7.22761 3 8.97241V17.0276C3 18.7724 4.24604 20 5.61728 20H18.4787C19.8543 20 21.0741 18.7764 20.9966 17.0731C20.9959 17.0579 20.9955 17.0428 20.9955 17.0276V8.97241C20.9955 7.22761 19.7495 6 18.3783 6H5.61728ZM1 8.97241C1 6.30343 2.96932 4 5.61728 4H18.3783C21.0262 4 22.9955 6.30343 22.9955 8.97241V17.0061C23.1061 19.7062 21.1146 22 18.4787 22H5.61728C2.96932 22 1 19.6966 1 17.0276V8.97241Z"
    fill="currentColor"
  />
  <path
    fill-rule="evenodd"
    clip-rule="evenodd"
    d="M5.12993 8.50688C5.40223 8.02639 6.01249 7.85763 6.49298 8.12993L11.1718 10.7815C11.7134 11.0727 12.2864 11.0727 12.8281 10.7815L17.5069 8.12993C17.9874 7.85763 18.5976 8.02639 18.8699 8.50688C19.1422 8.98737 18.9735 9.59763 18.493 9.86993L13.8055 12.5264L13.7895 12.5353C12.6482 13.1548 11.3517 13.1548 10.2104 12.5353L10.1944 12.5264L5.50688 9.86993C5.02639 9.59763 4.85763 8.98737 5.12993 8.50688Z"
    fill="currentColor"
  />
</svg>
