<svg
  width="30"
  height="24"
  viewBox="0 0 30 24"
  fill="none"
  xmlns="http://www.w3.org/2000/svg"
>
  <path
    d="M27.5 0H2.50002C1.12119 0 0 1.16768 0 2.60368V20.8294C0 22.2653 1.12119 23.433 2.50002 23.433H27.5C28.8788 23.433 30 22.2653 30 20.8293V2.60368C30 1.16768 28.8788 0 27.5 0ZM2.50002 1.30181H27.5C27.5921 1.30181 27.6733 1.33678 27.7597 1.35655C25.5953 3.41957 18.4185 10.2574 15.907 12.614C15.7105 12.7984 15.3938 13.0183 15.0001 13.0183C14.6064 13.0183 14.2896 12.7984 14.0924 12.6134C11.5812 10.2571 4.40396 3.41896 2.23992 1.35667C2.32652 1.3369 2.40785 1.30181 2.50002 1.30181ZM1.24998 20.8293V2.60368C1.24998 2.47615 1.28689 2.36045 1.31994 2.24389C2.9765 3.82293 7.98416 8.59398 11.2312 11.6691C7.99471 14.5645 2.98576 19.5103 1.31602 21.1686C1.28654 21.0579 1.24998 20.9496 1.24998 20.8293ZM27.5 22.1312H2.50002C2.40018 22.1312 2.31141 22.0949 2.21818 22.0717C3.94359 20.3587 8.98441 15.3844 12.164 12.5515C12.5274 12.895 12.8912 13.238 13.2556 13.5803C13.7708 14.0647 14.3737 14.3202 15 14.3202C15.6263 14.3202 16.2292 14.0646 16.7438 13.5809C17.1083 13.2383 17.4724 12.8952 17.836 12.5515C21.0158 15.3841 26.0559 20.358 27.7818 22.0717C27.6886 22.0949 27.5999 22.1312 27.5 22.1312ZM28.75 20.8293C28.75 20.9496 28.7135 21.0579 28.684 21.1686C27.0137 19.5095 22.0053 14.5642 18.7689 11.6692C22.016 8.59405 27.0229 3.82342 28.6801 2.24377C28.7131 2.36032 28.75 2.47608 28.75 2.60362V20.8293Z"
    fill="currentColor"
  />
</svg>
