<svg viewBox="0 0 24 24" fill="none" xmlns="http://www.w3.org/2000/svg">
<path d="M21.7 10.6363C20.7 6.7363 17.5 3.7363 13.6 3.1363C10.7 2.6363 7.8 3.5363 5.6 5.4363C3.3 7.3363 2 10.2363 2 13.2363C2 17.6363 4.8 21.5363 8.9 22.9363C9.2 23.0363 9.5 23.1363 9.9 23.1363C10.5 23.1363 11.2 22.9363 11.7 22.5363C12.5 21.9363 13 20.9363 13 19.9363C13 18.5363 14.1 17.6363 15.6 17.6363H17.7C20.1 17.6363 22 15.7363 22 13.3363C22 12.3363 21.9 11.5363 21.7 10.6363ZM17.7 15.5363H15.6C13 15.5363 11 17.4363 11 19.8363C11 20.2363 10.8 20.5363 10.5 20.8363C10.3 20.9363 10 21.1363 9.5 21.0363C6.2 19.9363 4 16.7363 4 13.2363C4 10.8363 5 8.5363 6.9 6.9363C8.3 5.7363 10.1 5.0363 12 5.0363C12.4 5.0363 12.9 5.0363 13.3 5.1363C16.4 5.6363 19 8.0363 19.8 11.1363C20 11.8363 20.1 12.5363 20.1 13.2363C20 14.5363 19 15.5363 17.7 15.5363Z" fill="currentColor"/>
<path d="M8.4798 15.3144C9.25 14.8812 9.52321 13.9057 9.09004 13.1355C8.65687 12.3653 7.68136 12.0921 6.91116 12.5253C6.14097 12.9584 5.86775 13.9339 6.30092 14.7041C6.73409 15.4743 7.70961 15.7475 8.4798 15.3144Z" fill="currentColor"/>
<path d="M10.6761 10.3153C11.4463 9.88218 11.7195 8.90666 11.2863 8.13647C10.8532 7.36627 9.87764 7.09306 9.10745 7.52623C8.33726 7.95939 8.06404 8.93491 8.49721 9.70511C8.93038 10.4753 9.9059 10.7485 10.6761 10.3153Z" fill="currentColor"/>
<path d="M16.0706 11.0209C16.8408 10.5877 17.114 9.61223 16.6809 8.84203C16.2477 8.07184 15.2722 7.79863 14.502 8.23179C13.7318 8.66496 13.4586 9.64048 13.8917 10.4107C14.3249 11.1809 15.3004 11.4541 16.0706 11.0209Z" fill="currentColor"/>
</svg>
