<svg
  width="231"
  height="231"
  viewBox="0 0 231 231"
  fill="none"
  xmlns="http://www.w3.org/2000/svg"
>
  <path
    d="M208.294 0H176.012C162.067 0 153.722 8.34492 153.722 22.2897V54.5714C153.722 68.5162 162.067 76.8611 176.012 76.8611H208.294C222.238 76.8611 230.583 68.5162 230.583 54.5714V22.2897C230.583 8.34492 222.238 0 208.294 0ZM210.709 36.3443C209.392 37.6619 207.635 38.3208 205.878 38.3208C204.121 38.3208 202.364 37.6619 201.047 36.3443L199.07 34.3679V58.9635C199.07 62.8065 195.996 65.881 192.153 65.881C188.31 65.881 185.235 62.8065 185.235 58.9635V34.3679L183.259 36.3443C180.624 38.9796 176.232 38.9796 173.596 36.3443C170.961 33.7091 170.961 29.317 173.596 26.6818L187.322 12.9566C187.871 12.4076 188.639 11.9684 189.408 11.639C189.627 11.5292 189.847 11.5292 190.067 11.4194C190.616 11.1998 191.165 11.09 191.823 11.09H192.482C193.251 11.09 193.91 11.1998 194.678 11.5292H194.898C195.666 11.8586 196.325 12.2978 196.874 12.8468C196.984 12.9566 196.984 12.9566 197.094 12.9566L210.819 26.6818C213.454 29.317 213.454 33.7091 210.709 36.3443ZM76.8611 102.994C83.792 102.994 90.4389 100.241 95.3398 95.3398C100.241 90.4389 102.994 83.792 102.994 76.8611C102.994 69.9303 100.241 63.2833 95.3398 58.3825C90.4389 53.4816 83.792 50.7283 76.8611 50.7283C69.9303 50.7283 63.2833 53.4816 58.3824 58.3825C53.4816 63.2833 50.7283 69.9303 50.7283 76.8611C50.7283 83.792 53.4816 90.4389 58.3824 95.3398C63.2833 100.241 69.9303 102.994 76.8611 102.994Z"
    fill="currentColor"
  />
  <path
    d="M208.294 76.8612H203.133V127.48L201.706 126.272C193.141 118.915 179.306 118.915 170.741 126.272L125.064 165.471C116.5 172.828 102.664 172.828 94.1 165.471L90.3667 162.397C82.5708 155.589 70.1632 154.93 61.3791 160.859L20.3133 188.42C17.8977 182.271 16.4702 175.134 16.4702 166.789V74.775C16.4702 43.8109 32.8307 27.4505 63.7947 27.4505H153.722V22.2898C153.722 17.8977 154.491 14.1645 156.248 10.9802H63.7947C23.8269 10.9802 0 34.8072 0 74.775V166.789C0 178.757 2.08623 189.188 6.14889 197.972C15.5918 218.835 35.7953 230.583 63.7947 230.583H155.808C195.776 230.583 219.603 206.757 219.603 166.789V74.3358C216.419 76.0926 212.686 76.8612 208.294 76.8612Z"
    fill="currentColor"
  />
</svg>
