<svg viewBox="0 0 24 24" fill="none" xmlns="http://www.w3.org/2000/svg">
  <path
    d="M1.5 2.25C1.44281 2.25 1.38506 2.25656 1.32787 2.26969C1.16346 2.30869 1.01699 2.40199 0.912135 2.53451C0.80728 2.66702 0.750159 2.83102 0.75 3C0.75 9.81525 1.61212 15.4834 12 15.7412V21C12 21.1458 12.0425 21.2885 12.1224 21.4105C12.2022 21.5325 12.3159 21.6286 12.4495 21.6871C12.5831 21.7455 12.7308 21.7637 12.8746 21.7395C13.0184 21.7153 13.152 21.6497 13.2591 21.5507L23.0091 12.5507C23.1628 12.4095 23.25 12.2094 23.25 12C23.25 11.7906 23.1628 11.5905 23.0091 11.4491L13.2591 2.44912C13.1521 2.34976 13.0184 2.28391 12.8745 2.25968C12.7305 2.23546 12.5826 2.25393 12.4491 2.31281C12.3155 2.37135 12.202 2.46751 12.1222 2.58955C12.0425 2.71159 12 2.85421 12 3V8.24119C4.87425 8.07056 3.5595 5.44181 2.17088 2.66456C2.10861 2.53995 2.01286 2.43516 1.89436 2.36193C1.77586 2.2887 1.6393 2.24994 1.5 2.25ZM12.75 9.75C13.1646 9.75 13.5 9.41456 13.5 9V4.71319L21.3941 12L13.5 19.2868V15C13.5 14.5854 13.1646 14.25 12.75 14.25C4.46475 14.25 2.68069 11.0456 2.32987 5.92744C3.88331 8.01412 6.531 9.75 12.75 9.75Z"
    fill="currentColor"
  />
</svg>
