<svg viewBox="0 0 60 60" fill="none" xmlns="http://www.w3.org/2000/svg">
<path d="M11.575 55.5375L46.875 20.25C47.5546 19.5326 47.9334 18.582 47.9334 17.5938C47.9334 16.6055 47.5546 15.6549 46.875 14.9375L45.1 13.175C44.3969 12.4727 43.4438 12.0783 42.45 12.0783C41.4562 12.0783 40.5031 12.4727 39.8 13.175L4.5 48.475C3.80112 49.1796 3.41005 50.1326 3.4125 51.125C3.41664 52.1088 3.80721 53.0515 4.5 53.75L6.25 55.5375C6.95312 56.2398 7.90624 56.6342 8.9 56.6342C9.89375 56.6342 10.8469 56.2398 11.55 55.5375L11.575 55.5375ZM43.3375 15L45.1 16.775C45.3328 17.0092 45.4635 17.326 45.4635 17.6563C45.4635 17.9865 45.3328 18.3033 45.1 18.5375L43.3375 20.3125L39.8 16.775L41.5625 15C41.6787 14.8828 41.817 14.7898 41.9693 14.7264C42.1216 14.6629 42.285 14.6303 42.45 14.6303C42.615 14.6303 42.7784 14.6629 42.9307 14.7264C43.083 14.7898 43.2213 14.8828 43.3375 15ZM8.0375 53.75L6.25 52C6.01718 51.7658 5.8865 51.449 5.8865 51.1188C5.8865 50.7885 6.01718 50.4717 6.25 50.2375L38.025 18.475L41.5625 22.0125L9.8125 53.75C9.69629 53.8672 9.55804 53.9602 9.40572 54.0236C9.2534 54.0871 9.09001 54.1198 8.925 54.1198C8.75998 54.1198 8.5966 54.0871 8.44428 54.0236C8.29195 53.9602 8.1537 53.8672 8.0375 53.75ZM36.25 8.75L36.25 11.25L33.75 11.25L33.75 8.75L31.25 8.75L31.25 6.25L33.75 6.25L33.75 3.75L36.25 3.75L36.25 6.25L38.75 6.25L38.75 8.75L36.25 8.75ZM51.25 23.75L51.25 21.25L53.75 21.25L53.75 23.75L56.25 23.75L56.25 26.25L53.75 26.25L53.75 28.75L51.25 28.75L51.25 26.25L48.75 26.25L48.75 23.75L51.25 23.75ZM51.25 6.25L51.25 2.5L53.75 2.5L53.75 6.25L57.5 6.25L57.5 8.75L53.75 8.75L53.75 12.5L51.25 12.5L51.25 8.75L47.5 8.75L47.5 6.25L51.25 6.25Z" fill="white"/>
</svg>
