<svg
  width="17"
  height="33"
  viewBox="0 0 17 33"
  fill="none"
  xmlns="http://www.w3.org/2000/svg"
>
  <path
    d="M0.692741 32.7544C0.557344 32.7547 0.424925 32.7131 0.312271 32.6348C0.199617 32.5566 0.1118 32.4453 0.059954 32.3151C0.00810764 32.1848 -0.00543385 32.0414 0.021046 31.9031C0.0475258 31.7648 0.112835 31.6379 0.208693 31.5383L14.7671 16.3776L0.208693 1.21706C-0.0586484 0.938633 -0.0586484 0.487248 0.208693 0.208821C0.476035 -0.0696068 0.909448 -0.0696068 1.17679 0.208821L16.2179 15.8736C16.4848 16.1516 16.4848 16.6023 16.2179 16.8804L1.17679 32.5451C1.1133 32.6115 1.03786 32.6641 0.954799 32.7C0.871736 32.7359 0.782681 32.7544 0.692741 32.7544Z"
    fill="currentColor"
  />
</svg>
