<svg viewBox="0 0 50 51" fill="none" xmlns="http://www.w3.org/2000/svg">
  <path
    d="M3.20625 19.25H22.8354C23.6856 19.2494 24.5008 18.9115 25.102 18.3103C25.7031 17.7091 26.0411 16.8939 26.0417 16.0437V3.70625C26.0411 2.85607 25.7031 2.04087 25.102 1.4397C24.5008 0.838529 23.6856 0.500552 22.8354 0.5L3.20625 0.5C2.35607 0.500552 1.54087 0.838529 0.939698 1.4397C0.338529 2.04087 0.000551887 2.85607 0 3.70625L0 16.0437C0.000551887 16.8939 0.338529 17.7091 0.939698 18.3103C1.54087 18.9115 2.35607 19.2494 3.20625 19.25ZM2.08333 3.70625C2.08388 3.4086 2.20237 3.1233 2.41284 2.91284C2.6233 2.70237 2.9086 2.58388 3.20625 2.58333H22.8354C23.1331 2.58388 23.4184 2.70237 23.6288 2.91284C23.8393 3.1233 23.9578 3.4086 23.9583 3.70625V16.0437C23.9578 16.3414 23.8393 16.6267 23.6288 16.8372C23.4184 17.0476 23.1331 17.1661 22.8354 17.1667H3.20625C2.9086 17.1661 2.6233 17.0476 2.41284 16.8372C2.20237 16.6267 2.08388 16.3414 2.08333 16.0437V3.70625ZM3.20625 50.5H15.5437C16.3939 50.4994 17.2091 50.1615 17.8103 49.5603C18.4115 48.9591 18.7494 48.1439 18.75 47.2938V27.6646C18.7494 26.8144 18.4115 25.9992 17.8103 25.398C17.2091 24.7969 16.3939 24.4589 15.5437 24.4583H3.20625C2.35607 24.4589 1.54087 24.7969 0.939698 25.398C0.338529 25.9992 0.000551887 26.8144 0 27.6646V47.2938C0.000551887 48.1439 0.338529 48.9591 0.939698 49.5603C1.54087 50.1615 2.35607 50.4994 3.20625 50.5ZM2.08333 27.6646C2.08388 27.3669 2.20237 27.0816 2.41284 26.8712C2.6233 26.6607 2.9086 26.5422 3.20625 26.5417H15.5437C15.8414 26.5422 16.1267 26.6607 16.3372 26.8712C16.5476 27.0816 16.6661 27.3669 16.6667 27.6646V47.2938C16.6661 47.5914 16.5476 47.8767 16.3372 48.0872C16.1267 48.2976 15.8414 48.4161 15.5437 48.4167H3.20625C2.9086 48.4161 2.6233 48.2976 2.41284 48.0872C2.20237 47.8767 2.08388 47.5914 2.08333 47.2938V27.6646ZM46.7938 24.4583H27.1646C26.3144 24.4589 25.4992 24.7969 24.898 25.398C24.2969 25.9992 23.9589 26.8144 23.9583 27.6646V47.2938C23.9589 48.1439 24.2969 48.9591 24.898 49.5603C25.4992 50.1615 26.3144 50.4994 27.1646 50.5H46.7938C47.6439 50.4994 48.4591 50.1615 49.0603 49.5603C49.6615 48.9591 49.9994 48.1439 50 47.2938V27.6646C49.9994 26.8144 49.6615 25.9992 49.0603 25.398C48.4591 24.7969 47.6439 24.4589 46.7938 24.4583ZM47.9167 47.2938C47.9161 47.5914 47.7976 47.8767 47.5872 48.0872C47.3767 48.2976 47.0914 48.4161 46.7938 48.4167H27.1646C26.8669 48.4161 26.5816 48.2976 26.3712 48.0872C26.1607 47.8767 26.0422 47.5914 26.0417 47.2938V27.6646C26.0422 27.3669 26.1607 27.0816 26.3712 26.8712C26.5816 26.6607 26.8669 26.5422 27.1646 26.5417H46.7938C47.0914 26.5422 47.3767 26.6607 47.5872 26.8712C47.7976 27.0816 47.9161 27.3669 47.9167 27.6646V47.2938ZM46.7938 0.5H34.4562C33.6061 0.500552 32.7909 0.838529 32.1897 1.4397C31.5885 2.04087 31.2506 2.85607 31.25 3.70625V16.0437C31.2506 16.8939 31.5885 17.7091 32.1897 18.3103C32.7909 18.9115 33.6061 19.2494 34.4562 19.25H46.7938C47.6439 19.2494 48.4591 18.9115 49.0603 18.3103C49.6615 17.7091 49.9994 16.8939 50 16.0437V3.70625C49.9994 2.85607 49.6615 2.04087 49.0603 1.4397C48.4591 0.838529 47.6439 0.500552 46.7938 0.5ZM47.9167 16.0437C47.9161 16.3414 47.7976 16.6267 47.5872 16.8372C47.3767 17.0476 47.0914 17.1661 46.7938 17.1667H34.4562C34.1586 17.1661 33.8733 17.0476 33.6628 16.8372C33.4524 16.6267 33.3339 16.3414 33.3333 16.0437V3.70625C33.3339 3.4086 33.4524 3.1233 33.6628 2.91284C33.8733 2.70237 34.1586 2.58388 34.4562 2.58333H46.7938C47.0914 2.58388 47.3767 2.70237 47.5872 2.91284C47.7976 3.1233 47.9161 3.4086 47.9167 3.70625V16.0437Z"
    fill="currentColor"
  />
</svg>
