<svg viewBox="0 0 50 51" fill="none" xmlns="http://www.w3.org/2000/svg">
  <path
    d="M44.3313 6.92666L43.3576 3.29306C42.8918 1.55468 40.6929 1.03046 38.8362 1.52793L29.6 4.00273L29.2399 2.65898C29.1117 2.18046 28.8039 1.78007 28.3731 1.53134C27.9423 1.28261 27.4416 1.2163 26.9632 1.34443L18.9264 3.49794C18.448 3.62617 18.0475 3.93398 17.7987 4.36484C17.5501 4.7956 17.4837 5.29638 17.6118 5.7748L17.9719 7.11855L8.73575 9.59335C7.85176 9.83017 7.017 10.3172 6.44541 10.9293C5.74375 11.6807 5.47999 12.552 5.70264 13.3827L6.67627 17.0161C6.75704 17.3178 6.94424 17.5706 7.20333 17.7282C7.38635 17.8393 7.59648 17.8976 7.81055 17.8968C7.91973 17.8968 8.03057 17.8821 8.14102 17.8525L9.30987 17.5394L11.9634 46.4304C12.1358 48.305 13.7093 49.7186 15.6235 49.7186H36.9213C38.8354 49.7186 40.4089 48.305 40.5815 46.4303L43.4401 15.3065C43.4501 15.1984 43.4374 15.0893 43.4028 14.9863C43.3682 14.8834 43.3125 14.7887 43.2393 14.7085C43.1661 14.6282 43.0769 14.5641 42.9776 14.5203C42.8782 14.4764 42.7707 14.4538 42.6621 14.4538H20.8251L43.4809 8.3832C44.13 8.20937 44.5035 7.56953 44.3313 6.92666ZM19.121 5.37041C19.0939 5.26884 19.1286 5.18623 19.1518 5.14609C19.175 5.10595 19.2291 5.03447 19.3307 5.00732L27.3675 2.8538C27.469 2.82646 27.5517 2.86142 27.5918 2.88457C27.6319 2.90771 27.7034 2.96181 27.7306 3.06347L28.0906 4.40732L19.481 6.71425L19.121 5.37041ZM41.8059 16.0164L39.0256 46.2872C38.9275 47.3527 38.0229 48.1562 36.9213 48.1562H15.6235C14.522 48.1562 13.6173 47.3527 13.5193 46.2874L10.8413 17.1291L14.9939 16.0164H41.8059ZM8.08829 16.2491L7.21182 12.9783C7.10665 12.5859 7.40196 12.1942 7.58741 11.9957C7.95928 11.5974 8.53965 11.2636 9.13995 11.1027L39.2404 3.0373C40.4274 2.71914 41.6704 3.03398 41.8481 3.69746L42.7246 6.96835L8.08829 16.2491ZM16.4268 39.3821C16.4446 39.5761 16.5343 39.7565 16.6782 39.8878C16.8221 40.0191 17.0099 40.0919 17.2047 40.0919H20.4471C20.5557 40.0919 20.6631 40.0692 20.7625 40.0253C20.8618 39.9815 20.951 39.9174 21.0242 39.8371C21.0974 39.7569 21.1531 39.6623 21.1877 39.5593C21.2223 39.4564 21.235 39.3473 21.2251 39.2392L19.6297 21.8683C19.6119 21.6742 19.5222 21.4939 19.3783 21.3625C19.2344 21.2312 19.0466 21.1584 18.8518 21.1584H15.6093C15.5007 21.1584 15.3932 21.1811 15.2939 21.2249C15.1945 21.2688 15.1054 21.3329 15.0322 21.4131C14.959 21.4934 14.9033 21.588 14.8687 21.691C14.8341 21.7939 14.8213 21.903 14.8313 22.0111L16.4268 39.3821ZM18.139 22.721L19.5908 38.5294H17.9175L16.4655 22.721H18.139ZM24.6365 40.0919H27.8654C28.0723 40.0919 28.2707 40.0098 28.4172 39.8638C28.5636 39.7177 28.6462 39.5195 28.6467 39.3126L28.6905 21.9417C28.6908 21.8389 28.6707 21.7372 28.6316 21.6422C28.5924 21.5472 28.5349 21.4608 28.4623 21.3881C28.3898 21.3153 28.3036 21.2576 28.2087 21.2182C28.1138 21.1788 28.012 21.1585 27.9093 21.1585H24.6805C24.4736 21.1585 24.2752 21.2405 24.1287 21.3866C23.9823 21.5327 23.8997 21.7309 23.8992 21.9378L23.8553 39.3087C23.855 39.4115 23.875 39.5133 23.9141 39.6083C23.9533 39.7033 24.0108 39.7897 24.0834 39.8624C24.1559 39.9352 24.2421 39.9929 24.3371 40.0323C24.432 40.0717 24.5338 40.0919 24.6365 40.0919ZM25.4597 22.721H27.126L27.086 38.5294H25.4196L25.4597 22.721ZM31.5188 40.0919H34.7612C34.9561 40.0919 35.1438 40.0191 35.2878 39.8878C35.4317 39.7565 35.5213 39.5761 35.5392 39.3821L37.1346 22.0112C37.1445 21.9031 37.1318 21.794 37.0972 21.691C37.0626 21.588 37.0069 21.4934 36.9337 21.4132C36.8605 21.3329 36.7714 21.2688 36.672 21.225C36.5726 21.1811 36.4652 21.1585 36.3565 21.1585H33.1141C32.9193 21.1585 32.7315 21.2313 32.5875 21.3626C32.4436 21.4939 32.354 21.6743 32.3361 21.8683L30.7407 39.2392C30.7308 39.3473 30.7435 39.4564 30.7781 39.5594C30.8127 39.6623 30.8684 39.757 30.9416 39.8372C31.0148 39.9175 31.1039 39.9815 31.2033 40.0254C31.3027 40.0693 31.4101 40.0919 31.5188 40.0919ZM33.827 22.721H35.5003L34.0483 38.5294H32.375L33.827 22.721Z"
    fill="currentColor"
  />
</svg>
