<svg viewBox="0 0 50 51" fill="none" xmlns="http://www.w3.org/2000/svg">
  <path
    d="M45.9671 3.72577H4.0322C3.81832 3.72577 3.6132 3.81073 3.46196 3.96197C3.31072 4.11321 3.22576 4.31833 3.22576 4.53221V30.3383C3.22576 30.5522 3.31072 30.7573 3.46196 30.9085C3.6132 31.0598 3.81832 31.1447 4.0322 31.1447H45.9671C46.181 31.1447 46.3861 31.0598 46.5373 30.9085C46.6886 30.7573 46.7735 30.5522 46.7735 30.3383V4.53221C46.7735 4.31833 46.6886 4.11321 46.5373 3.96197C46.3861 3.81073 46.181 3.72577 45.9671 3.72577ZM21.7602 29.5319H8.03507L14.5487 20.4404L21.7602 29.5319ZM19.7281 24.3749L28.2599 12.3302L41.8193 29.5319H23.8188L19.7281 24.3749ZM45.1606 29.5319H43.873L28.8588 10.4845C28.7811 10.386 28.6816 10.307 28.5681 10.2537C28.4545 10.2004 28.3301 10.1744 28.2048 10.1776C28.0794 10.1808 27.9565 10.2132 27.8459 10.2722C27.7352 10.3312 27.6398 10.4153 27.5673 10.5176L18.684 23.0586L15.1478 18.6005C15.0702 18.5026 14.971 18.4242 14.8579 18.3712C14.7448 18.3183 14.621 18.2923 14.4962 18.2954C14.3714 18.2984 14.249 18.3304 14.1387 18.3888C14.0284 18.4472 13.9331 18.5304 13.8604 18.6319L6.05102 29.5319H4.83864V5.33865H45.1606V29.5319Z"
    fill="currentColor"
  />
  <path
    d="M49.1928 0.5H0.80644C0.592559 0.5 0.387438 0.584964 0.236201 0.736201C0.0849639 0.887438 0 1.09256 0 1.30644V43.2413C0 43.4552 0.0849639 43.6603 0.236201 43.8116C0.387438 43.9628 0.592559 44.0478 0.80644 44.0478H31.8907C32.55 46.112 33.9114 47.8801 35.7385 49.0453C37.5655 50.2104 39.7429 50.699 41.8927 50.4262C44.0424 50.1533 46.0287 49.1363 47.5068 47.5517C48.9849 45.9671 49.8614 43.9149 49.9842 41.7514C49.9956 41.7115 50.0008 41.67 49.9993 41.6284V1.30644C49.9993 1.09256 49.9143 0.887438 49.7631 0.736201C49.6118 0.584964 49.4067 0.5 49.1928 0.5ZM45.1344 47.4842C45.3795 47.2714 45.5793 47.0115 45.7218 46.7198C45.8642 46.4282 45.9465 46.1108 45.9637 45.7867C45.9809 45.4626 45.9327 45.1383 45.8219 44.8332C45.711 44.5281 45.5399 44.2485 45.3187 44.0109C45.0975 43.7734 44.8307 43.5829 44.5343 43.4506C44.2379 43.3184 43.9178 43.2473 43.5933 43.2414C43.2688 43.2355 42.9464 43.295 42.6453 43.4164C42.3443 43.5378 42.0708 43.7186 41.8411 43.948L38.4994 42.6113C38.6377 42.3021 38.7092 41.9672 38.7091 41.6284C38.7092 41.5161 38.7011 41.4039 38.6849 41.2928L41.8996 39.3644C42.3064 39.7427 42.8312 39.9693 43.3856 40.0062C43.9399 40.043 44.49 39.8877 44.9434 39.5665C45.3967 39.2453 45.7255 38.7777 45.8745 38.2425C46.0235 37.7073 45.9836 37.137 45.7615 36.6278C45.5394 36.1185 45.1486 35.7013 44.655 35.4464C44.1614 35.1915 43.595 35.1143 43.0511 35.228C42.5073 35.3417 42.0192 35.6392 41.6691 36.0706C41.3189 36.5019 41.128 37.0407 41.1284 37.5962C41.1283 37.7086 41.1364 37.8208 41.1526 37.9319L37.938 39.8603C37.6163 39.5602 37.2188 39.3536 36.7884 39.2626C36.358 39.1716 35.9109 39.1998 35.4953 39.344C35.0796 39.4882 34.7112 39.7431 34.4297 40.0811C34.1481 40.4191 33.9641 40.8276 33.8974 41.2624C33.8307 41.6973 33.8839 42.1421 34.0512 42.5489C34.2185 42.9558 34.4936 43.3093 34.8469 43.5715C35.2002 43.8336 35.6184 43.9944 36.0563 44.0366C36.4942 44.0788 36.9353 44.0008 37.3321 43.8109C37.4095 43.8884 37.5017 43.9494 37.6033 43.9903L41.1415 45.4056C41.1335 45.4893 41.1284 45.575 41.1284 45.6606C41.1282 46.0636 41.2286 46.4603 41.4207 46.8146C41.6128 47.1689 41.8904 47.4696 42.2282 47.6892C42.5661 47.9089 42.9535 48.0406 43.3553 48.0724C43.757 48.1042 44.1604 48.0351 44.5286 47.8713C42.7872 48.8726 40.7231 49.1528 38.7778 48.6521C36.8324 48.1514 35.1601 46.9095 34.1184 45.192C33.0767 43.4744 32.7483 41.4175 33.2034 39.461C33.6585 37.5045 34.8609 35.8036 36.5537 34.722C38.2464 33.6405 40.2951 33.2641 42.2617 33.6733C44.2283 34.0825 45.9568 35.2449 47.0777 36.9119C48.1985 38.5789 48.6227 40.6182 48.2595 42.5939C47.8964 44.5695 46.7748 46.3247 45.1344 47.4842ZM44.3542 45.6606C44.3542 45.8201 44.3069 45.9761 44.2183 46.1087C44.1297 46.2413 44.0037 46.3447 43.8564 46.4057C43.709 46.4667 43.5469 46.4827 43.3904 46.4516C43.234 46.4205 43.0903 46.3437 42.9775 46.2309C42.8647 46.1181 42.7879 45.9744 42.7568 45.818C42.7257 45.6615 42.7417 45.4994 42.8027 45.352C42.8637 45.2047 42.9671 45.0787 43.0997 44.9901C43.2323 44.9015 43.3883 44.8542 43.5478 44.8542C43.7616 44.8545 43.9665 44.9396 44.1177 45.0907C44.2688 45.2419 44.3539 45.4469 44.3542 45.6606ZM42.7413 37.5962C42.7413 37.4367 42.7886 37.2808 42.8772 37.1482C42.9658 37.0156 43.0918 36.9122 43.2391 36.8512C43.3865 36.7902 43.5487 36.7742 43.7051 36.8053C43.8615 36.8364 44.0052 36.9132 44.118 37.026C44.2308 37.1388 44.3076 37.2825 44.3387 37.4389C44.3698 37.5953 44.3538 37.7575 44.2928 37.9049C44.2318 38.0522 44.1284 38.1782 43.9958 38.2668C43.8632 38.3554 43.7073 38.4027 43.5478 38.4027C43.334 38.4024 43.129 38.3173 42.9778 38.1662C42.8267 38.015 42.7416 37.81 42.7413 37.5962ZM37.0962 41.6284C37.0962 41.7879 37.0489 41.9439 36.9603 42.0765C36.8717 42.2091 36.7458 42.3125 36.5984 42.3735C36.4511 42.4345 36.2889 42.4505 36.1325 42.4194C35.976 42.3883 35.8323 42.3115 35.7196 42.1987C35.6068 42.0859 35.53 41.9422 35.4989 41.7858C35.4677 41.6293 35.4837 41.4672 35.5447 41.3198C35.6058 41.1725 35.7091 41.0465 35.8418 40.9579C35.9744 40.8693 36.1303 40.822 36.2898 40.822C36.5036 40.8223 36.7085 40.9074 36.8597 41.0585C37.0109 41.2097 37.0959 41.4146 37.0962 41.6284ZM48.3864 36.0045C47.2707 34.3659 45.6592 33.1281 43.7883 32.4726C41.9174 31.8172 39.8858 31.7786 37.9914 32.3626C36.097 32.9466 34.4396 34.1224 33.2626 35.7174C32.0855 37.3125 31.4506 39.2429 31.4512 41.2252C31.4513 41.6297 31.4776 42.0338 31.5298 42.4349H1.61288V2.11288H48.3864V36.0045Z"
    fill="currentColor"
  />
  <path
    d="M15.3224 15.8224C16.1199 15.8224 16.8994 15.5859 17.5625 15.1428C18.2256 14.6998 18.7424 14.07 19.0476 13.3332C19.3528 12.5964 19.4327 11.7857 19.2771 11.0035C19.1215 10.2214 18.7375 9.50288 18.1736 8.93897C17.6096 8.37506 16.8912 7.99103 16.109 7.83544C15.3268 7.67986 14.5161 7.75971 13.7793 8.0649C13.0425 8.37009 12.4128 8.88691 11.9697 9.55C11.5266 10.2131 11.2902 10.9927 11.2902 11.7902C11.2914 12.8592 11.7166 13.8841 12.4725 14.64C13.2284 15.396 14.2533 15.8212 15.3224 15.8224ZM15.3224 9.37085C15.8009 9.37085 16.2686 9.51274 16.6665 9.77858C17.0643 10.0444 17.3744 10.4223 17.5575 10.8643C17.7406 11.3064 17.7885 11.7929 17.6952 12.2622C17.6018 12.7315 17.3714 13.1625 17.0331 13.5009C16.6947 13.8392 16.2636 14.0697 15.7943 14.163C15.325 14.2564 14.8386 14.2084 14.3965 14.0253C13.9545 13.8422 13.5766 13.5321 13.3108 13.1343C13.0449 12.7364 12.903 12.2687 12.903 11.7902C12.9038 11.1488 13.1589 10.5338 13.6125 10.0803C14.066 9.62673 14.6809 9.37159 15.3224 9.37085ZM9.67728 32.7576H4.0322C3.81832 32.7576 3.6132 32.8426 3.46196 32.9938C3.31072 33.145 3.22576 33.3502 3.22576 33.5641V40.0156C3.22576 40.2295 3.31072 40.4346 3.46196 40.5858C3.6132 40.737 3.81832 40.822 4.0322 40.822H9.67728C9.89116 40.822 10.0963 40.737 10.2475 40.5858C10.3988 40.4346 10.4837 40.2295 10.4837 40.0156V33.5641C10.4837 33.3502 10.3988 33.145 10.2475 32.9938C10.0963 32.8426 9.89116 32.7576 9.67728 32.7576ZM8.87084 39.2091H4.83864V34.3705H8.87084V39.2091ZM21.7739 32.7576H12.903C12.6892 32.7576 12.484 32.8426 12.3328 32.9938C12.1816 33.145 12.0966 33.3502 12.0966 33.5641C12.0966 33.7779 12.1816 33.9831 12.3328 34.1343C12.484 34.2855 12.6892 34.3705 12.903 34.3705H21.7739C21.9878 34.3705 22.1929 34.2855 22.3441 34.1343C22.4954 33.9831 22.5803 33.7779 22.5803 33.5641C22.5803 33.3502 22.4954 33.145 22.3441 32.9938C22.1929 32.8426 21.9878 32.7576 21.7739 32.7576ZM21.7739 35.9834H12.903C12.6892 35.9834 12.484 36.0683 12.3328 36.2196C12.1816 36.3708 12.0966 36.5759 12.0966 36.7898C12.0966 37.0037 12.1816 37.2088 12.3328 37.3601C12.484 37.5113 12.6892 37.5963 12.903 37.5963H21.7739C21.9878 37.5963 22.1929 37.5113 22.3441 37.3601C22.4954 37.2088 22.5803 37.0037 22.5803 36.7898C22.5803 36.5759 22.4954 36.3708 22.3441 36.2196C22.1929 36.0683 21.9878 35.9834 21.7739 35.9834ZM16.9352 39.2091H12.903C12.6892 39.2091 12.484 39.2941 12.3328 39.4453C12.1816 39.5966 12.0966 39.8017 12.0966 40.0156C12.0966 40.2295 12.1816 40.4346 12.3328 40.5858C12.484 40.737 12.6892 40.822 12.903 40.822H16.9352C17.1491 40.822 17.3542 40.737 17.5055 40.5858C17.6567 40.4346 17.7417 40.2295 17.7417 40.0156C17.7417 39.8017 17.6567 39.5966 17.5055 39.4453C17.3542 39.2941 17.1491 39.2091 16.9352 39.2091Z"
    fill="currentColor"
  />
</svg>
