<svg viewBox="0 0 56 47" fill="none" xmlns="http://www.w3.org/2000/svg">
  <path
    d="M13.5396 19.1515C11.5155 19.1515 9.86869 20.6935 9.86869 22.5887C9.86869 24.4838 11.5155 26.0258 13.5396 26.0258C15.5637 26.0258 17.2105 24.4838 17.2105 22.5887C17.2105 20.6935 15.5638 19.1515 13.5396 19.1515ZM13.5396 24.5916C12.36 24.5916 11.4003 23.6931 11.4003 22.5886C11.4003 21.484 12.36 20.5855 13.5396 20.5855C14.7192 20.5855 15.6789 21.484 15.6789 22.5886C15.6789 23.6931 14.7192 24.5916 13.5396 24.5916ZM41.1934 9.07442C41.0498 8.93995 40.9691 8.75756 40.9691 8.56739C40.9691 8.37722 41.0498 8.19484 41.1934 8.06037L44.6659 4.80908C44.8095 4.6746 45.0043 4.59904 45.2074 4.59903H45.2075C45.3081 4.59907 45.4077 4.61767 45.5007 4.65376C45.5936 4.68985 45.678 4.74273 45.7491 4.80938L49.2185 8.06067C49.362 8.1952 49.4426 8.3776 49.4425 8.56776C49.4424 8.75791 49.3616 8.94024 49.2179 9.07463C49.0742 9.20902 48.8794 9.28446 48.6763 9.28437C48.4732 9.28427 48.2785 9.20864 48.135 9.07411L45.9731 7.04825V13.2875C45.9749 13.3827 45.9563 13.4773 45.9186 13.5657C45.8809 13.654 45.8248 13.7345 45.7535 13.8024C45.6822 13.8703 45.5972 13.9242 45.5035 13.961C45.4097 13.9978 45.3091 14.0167 45.2074 14.0167C45.1057 14.0167 45.0051 13.9978 44.9113 13.961C44.8176 13.9242 44.7326 13.8703 44.6613 13.8024C44.59 13.7345 44.5339 13.654 44.4962 13.5657C44.4585 13.4773 44.4399 13.3827 44.4417 13.2875V7.04713L42.2765 9.07442C42.2053 9.14103 42.1209 9.19386 42.028 9.22991C41.9351 9.26596 41.8355 9.28452 41.7349 9.28452C41.6344 9.28452 41.5348 9.26596 41.4418 9.22991C41.3489 9.19386 41.2645 9.14103 41.1934 9.07442ZM49.9448 15.8944C49.9448 16.0845 49.8641 16.2669 49.7205 16.4014C49.5769 16.5359 49.3822 16.6114 49.1791 16.6114H41.2327C41.0296 16.6114 40.8348 16.5359 40.6911 16.4014C40.5475 16.2669 40.4668 16.0845 40.4668 15.8944C40.4668 15.7042 40.5475 15.5218 40.6911 15.3873C40.8348 15.2528 41.0296 15.1773 41.2327 15.1773H49.1791C49.3822 15.1773 49.5769 15.2529 49.7205 15.3874C49.8641 15.5218 49.9448 15.7042 49.9448 15.8944ZM56 10.6051C56 5.03315 51.1585 0.5 45.2074 0.5C42.2353 0.5 39.5401 1.63009 37.5858 3.45512H3.46012C1.55227 3.45512 0 4.90974 0 6.69771V43.2573C0 45.0453 1.55216 46.5 3.46012 46.5H44.7826C46.6922 46.5 48.2458 45.0453 48.2458 43.2573V20.3021C52.7222 19.0704 56 15.1897 56 10.6051ZM46.7142 43.2574C46.7142 44.2547 45.8477 45.066 44.7826 45.066H3.46012C2.39676 45.066 1.5316 44.2547 1.5316 43.2574V6.69781C1.5316 5.70065 2.39676 4.88936 3.46012 4.88936H36.3098C35.1133 6.51614 34.4117 8.48526 34.4117 10.6051C34.4117 12.0827 34.7523 13.4871 35.3639 14.7534H5.31109C5.21053 14.7534 5.11094 14.772 5.01803 14.808C4.92512 14.844 4.8407 14.8969 4.76959 14.9635C4.69849 15.03 4.64208 15.1091 4.60361 15.1961C4.56513 15.2831 4.54534 15.3763 4.54535 15.4705V41.5273C4.54535 41.7175 4.62602 41.8998 4.76962 42.0343C4.91323 42.1688 5.108 42.2444 5.31109 42.2444H42.9348C43.0354 42.2444 43.1349 42.2258 43.2278 42.1898C43.3208 42.1538 43.4052 42.1009 43.4763 42.0343C43.5474 41.9678 43.6038 41.8887 43.6423 41.8017C43.6807 41.7147 43.7005 41.6215 43.7005 41.5273V20.6114C44.1932 20.6762 44.6961 20.7104 45.2074 20.7104C45.7187 20.7104 46.2217 20.6762 46.7142 20.6114V43.2574ZM33.6725 40.8102H7.09743L21.2712 26.8792L33.6725 40.8102ZM35.6663 40.8102L29.9509 34.3899L32.9537 31.437L41.2987 40.8102H35.6663ZM42.1689 39.5478L33.5799 29.9007C33.5108 29.823 33.4249 29.76 33.3279 29.7156C33.2308 29.6712 33.1249 29.6465 33.017 29.6431C32.9091 29.6401 32.8017 29.6583 32.7018 29.6965C32.6019 29.7348 32.5117 29.7923 32.4371 29.8654L28.9638 33.281L21.8976 25.3431C21.8284 25.2654 21.7426 25.2023 21.6456 25.1579C21.5486 25.1135 21.4426 25.0888 21.3347 25.0854C21.2268 25.0822 21.1194 25.1003 21.0195 25.1386C20.9196 25.1769 20.8295 25.2344 20.7549 25.3075L6.07684 39.7343V16.1876H36.2132C37.6046 18.1452 39.7051 19.6247 42.1689 20.3023V39.5478ZM45.2074 19.2762C40.0991 19.2762 35.9432 15.3864 35.9432 10.6051C35.9432 5.82385 40.0991 1.93414 45.2074 1.93414C50.314 1.93414 54.4684 5.82385 54.4684 10.6051C54.4684 15.3864 50.3139 19.2762 45.2074 19.2762Z"
    fill="currentColor"
  />
</svg>
