<svg viewBox="0 0 24 24" fill="none" xmlns="http://www.w3.org/2000/svg">
  <path
    d="M15.3 22.0002H5.5C3.5 22.0002 2 20.5002 2 18.5002V8.7002C2 6.8002 3.5 5.2002 5.5 5.2002H15.3C17.2 5.2002 18.8 6.7002 18.8 8.7002V18.5002C18.7 20.5002 17.2 22.0002 15.3 22.0002ZM5.5 7.3002C4.7 7.3002 4 7.9002 4 8.7002V18.5002C4 19.3002 4.7 20.0002 5.5 20.0002H15.3C16.1 20.0002 16.8 19.3002 16.8 18.5002V8.7002C16.8 7.9002 16.1 7.2002 15.3 7.2002H5.5V7.3002Z"
    fill="currentColor"
  />
  <path
    d="M21.0001 17.9C20.4001 17.9 20.0001 17.5 20.0001 16.9V6.3C20.0001 5 19.0001 4 17.7001 4H7.1001C6.5001 4 6.1001 3.6 6.1001 3C6.1001 2.4 6.5001 2 7.1001 2H17.7001C20.1001 2 22.0001 3.9 22.0001 6.3V16.9C22.0001 17.5 21.6001 17.9 21.0001 17.9Z"
    fill="currentColor"
  />
</svg>
