<svg viewBox="0 0 24 24" fill="none" xmlns="http://www.w3.org/2000/svg">
  <path
    fill-rule="evenodd"
    clip-rule="evenodd"
    d="M22.8226 5.00686C23.6955 2.51298 21.3185 0.454713 19.0157 1.13419C19.002 1.13825 18.9883 1.1426 18.9748 1.14724L3.03551 6.60527C0.261518 7.49536 0.342892 11.4022 3.15677 12.2491C3.16629 12.252 3.17586 12.2547 3.18546 12.2573L8.53372 13.6945C8.54499 13.6975 8.55631 13.7004 8.56769 13.703C9.3844 13.8921 10.0119 14.5236 10.3152 15.4967L11.7417 20.8393C11.7419 20.8401 11.7421 20.8409 11.7423 20.8417C12.4893 23.681 16.3933 23.6922 17.3723 21.0261L17.3803 21.0035L22.8226 5.00686ZM19.5998 3.04724C20.5331 2.78462 21.2002 3.59187 20.934 4.34845L15.4913 20.3464C15.1289 21.3096 13.8852 21.1285 13.6762 20.3319L12.2425 14.962C12.2394 14.9502 12.236 14.9384 12.2324 14.9267C11.7714 13.4235 10.6885 12.1486 9.03697 11.7588L3.72091 10.3302C2.73156 10.022 2.81194 8.77405 3.65149 8.50806L3.67343 8.50083L19.5998 3.04724Z"
    fill="currentColor"
  />
</svg>
