<svg viewBox="0 0 247 45" fill="none" xmlns="http://www.w3.org/2000/svg">
  <path
    d="M12.7289 1.98285C12.7289 0.887752 13.6216 0 14.7229 0C15.8241 0 16.7168 0.887752 16.7168 1.98285L16.7168 32.717C16.7168 33.8121 15.8241 34.6999 14.7228 34.6999C13.6216 34.6999 12.7289 33.8121 12.7289 32.717L12.7289 1.98285Z"
    fill="#DCDCDC"
  />
  <path
    d="M74.5418 31.7256C75.6431 31.7256 76.5358 32.6134 76.5358 33.7085C76.5358 34.8036 75.6431 35.6913 74.5418 35.6913H15.72C14.6187 35.6913 13.726 34.8036 13.726 33.7085C13.726 32.6134 14.6187 31.7256 15.72 31.7256H74.5418Z"
    fill="#DCDCDC"
  />
  <path
    d="M2.99002 44.2253C2.03592 44.7722 0.816673 44.4463 0.26675 43.4976C-0.283174 42.5488 0.044474 41.3363 0.998571 40.7895L13.3935 32.2156C14.3476 31.6687 15.5669 31.9946 16.1168 32.9434C16.6667 33.8921 16.3391 35.1046 15.385 35.6514L2.99002 44.2253Z"
    fill="#DCDCDC"
  />
  <path
    d="M31.1108 18.1818C33.0981 18.1843 35.0206 18.8886 36.5385 20.1703C38.0564 21.452 39.0721 23.2285 39.406 25.1859H50.8556C51.0389 24.0972 51.4353 23.0552 52.0221 22.1197C52.6089 21.1842 53.3745 20.3735 54.2752 19.734C55.1759 19.0945 56.194 18.6387 57.2712 18.3928C58.3484 18.1468 59.4636 18.1155 60.5529 18.3007V16.7809C60.5508 14.924 59.8115 13.1436 58.4974 11.8306C57.1832 10.5175 55.4014 9.77888 53.5428 9.77678H36.7188C34.8603 9.77888 33.0785 10.5175 31.7643 11.8306C30.4501 13.1436 29.7109 14.924 29.7088 16.7809V18.3007C30.172 18.2221 30.6409 18.1823 31.1108 18.1818Z"
    fill="#67B52A"
  />
  <path
    d="M64.7469 26.2383C64.743 26.175 64.7385 26.1118 64.7325 26.0489C64.7298 26.02 64.7264 25.9913 64.7232 25.9626C64.7163 25.9004 64.7084 25.8386 64.6996 25.777C64.6959 25.7516 64.6921 25.7261 64.6881 25.7008C64.6769 25.6308 64.6645 25.5612 64.6507 25.4922C64.6476 25.4766 64.6449 25.461 64.6417 25.4456C64.3589 24.0878 63.5824 22.8831 62.4622 22.0643C61.3419 21.2455 59.9576 20.8709 58.577 21.0128C57.1963 21.1548 55.9173 21.8033 54.9875 22.8328C54.0576 23.8624 53.5429 25.1999 53.5428 26.5867V30.6024C53.5428 30.974 53.3951 31.3303 53.1322 31.593C52.8693 31.8557 52.5127 32.0033 52.1408 32.0033C51.769 32.0033 51.4124 31.8557 51.1495 31.593C50.8865 31.3303 50.7388 30.974 50.7388 30.6024V27.9876H39.5228V30.6024C39.5228 30.974 39.3751 31.3303 39.1122 31.593C38.8492 31.8557 38.4926 32.0033 38.1208 32.0033C37.749 32.0033 37.3924 31.8557 37.1294 31.593C36.8665 31.3303 36.7188 30.974 36.7188 30.6024V26.5867C36.7187 25.1999 36.204 23.8624 35.2742 22.8329C34.3443 21.8033 33.0654 21.1548 31.6847 21.0129C30.304 20.8709 28.9197 21.2456 27.7995 22.0643C26.6793 22.8831 25.9027 24.0878 25.62 25.4456C25.6168 25.461 25.614 25.4766 25.611 25.4922C25.5972 25.5612 25.5847 25.6308 25.5736 25.7008C25.5695 25.7261 25.5658 25.7516 25.5621 25.777C25.5531 25.8385 25.5452 25.9004 25.5384 25.9626C25.5352 25.9913 25.5319 26.02 25.5292 26.0489C25.5231 26.1118 25.5186 26.175 25.5147 26.2383C25.5131 26.2648 25.5109 26.2912 25.5096 26.3177C25.5054 26.4069 25.5028 26.4965 25.5028 26.5867C25.5029 27.8291 25.916 29.0362 26.6773 30.0185C27.4386 31.0008 28.505 31.7025 29.7088 32.0135V39.1942C29.7096 39.937 30.0053 40.6491 30.531 41.1743C31.0567 41.6996 31.7694 41.995 32.5128 41.9959H57.7489C58.4923 41.995 59.205 41.6996 59.7307 41.1743C60.2563 40.6491 60.552 39.937 60.5529 39.1942V32.0135C61.7567 31.7025 62.823 31.0008 63.5843 30.0185C64.3456 29.0362 64.7588 27.8291 64.7589 26.5867C64.7589 26.4965 64.7563 26.4069 64.752 26.3177C64.7508 26.2912 64.7486 26.2648 64.7469 26.2383Z"
    fill="#67B52A"
  />
  <path
    d="M88.7269 36.9327C89.7624 35.0905 90.8863 32.4786 92.0987 29.097L97.4026 14.4099C97.5541 13.9556 97.6299 13.4635 97.6299 12.9336C97.6299 12.0503 97.4026 11.0409 96.948 9.90528V9.79172H103.843L111.761 30.8383C112.721 33.3871 113.706 35.4186 114.716 36.9327V37.0463H105.624V36.8948C105.725 36.5668 105.801 36.2009 105.851 35.7971C105.927 35.3681 105.965 34.876 105.965 34.3208C105.965 34.0684 105.952 33.6268 105.927 32.9959C105.902 32.3398 105.737 31.608 105.434 30.8004L104.298 27.81H94.4476L93.8035 29.6648C93.5004 30.5481 93.3489 31.507 93.3489 32.5417C93.3489 33.8539 93.5888 35.2924 94.0687 36.857V37.0463H88.7269V36.9327ZM95.0537 26.1066H103.692L99.259 14.3341L95.0537 26.1066Z"
    fill="#262626"
  />
  <path
    d="M116.318 36.1378C116.419 35.7088 116.52 35.2545 116.621 34.775C116.748 34.2956 116.861 33.7025 116.962 32.9959C117.063 32.2893 117.114 31.6458 117.114 31.0654V23.9489C117.114 23.3685 117.063 22.725 116.962 22.0184C116.861 21.3118 116.748 20.7188 116.621 20.2393C116.52 19.7598 116.407 19.3056 116.28 18.8766C116.179 18.4223 116.129 18.17 116.129 18.1195V17.9681H122.607V21.6399C123.39 20.05 124.287 18.9649 125.297 18.3845C126.333 17.8041 127.305 17.5138 128.214 17.5138C128.947 17.5138 129.73 17.6526 130.563 17.9302L129.692 23.8354H129.54C128.934 23.2045 128.277 22.7124 127.57 22.3591C126.888 21.9806 126.093 21.7913 125.183 21.7913C124.299 21.7913 123.441 22.0815 122.607 22.6619V31.0654C122.607 31.5449 122.633 32.0622 122.683 32.6174C122.759 33.1473 122.847 33.6521 122.948 34.1315C123.049 34.611 123.138 35.0274 123.213 35.3807C123.289 35.7088 123.378 36.0368 123.479 36.3649L123.63 36.8948V37.0463H116.129V36.8948C116.129 36.8444 116.192 36.592 116.318 36.1378Z"
    fill="#262626"
  />
  <path
    d="M132.163 19.6336V18.1195C133.981 17.3372 135.522 16.4161 136.785 15.3562C138.047 14.2711 139.209 13.0093 140.27 11.5708H140.46V17.9681H145.612V19.6336H140.46V30.8761C140.46 32.794 141.331 33.753 143.074 33.753C144.008 33.753 144.968 33.488 145.953 32.9581C144.791 35.9359 142.821 37.4248 140.043 37.4248C138.452 37.4248 137.201 36.8948 136.292 35.8349C135.383 34.775 134.928 33.2988 134.928 31.4061V19.6336H132.163Z"
    fill="#262626"
  />
  <path
    d="M148.14 36.1378C148.241 35.7088 148.343 35.2545 148.444 34.775C148.57 34.2956 148.683 33.7025 148.785 32.9959C148.886 32.2893 148.936 31.6458 148.936 31.0654V23.9489C148.936 22.6872 148.608 20.744 147.951 18.1195V17.9681H154.429V31.0654C154.429 31.5449 154.455 32.0622 154.505 32.6174C154.581 33.1473 154.669 33.6521 154.77 34.1315C154.871 34.611 154.96 35.0274 155.036 35.3807C155.111 35.7088 155.2 36.0368 155.301 36.3649L155.452 36.8948V37.0463H147.951V36.8948C147.951 36.8444 148.014 36.592 148.14 36.1378ZM147.951 11.6844C147.951 10.7507 148.292 9.95575 148.974 9.29962C149.681 8.61826 150.515 8.27758 151.474 8.27758C152.434 8.27758 153.255 8.61826 153.937 9.29962C154.619 9.95575 154.96 10.7507 154.96 11.6844C154.96 12.6434 154.606 13.4635 153.899 14.1449C153.217 14.801 152.409 15.1291 151.474 15.1291C150.515 15.1291 149.681 14.801 148.974 14.1449C148.292 13.4635 147.951 12.6434 147.951 11.6844Z"
    fill="#262626"
  />
  <path
    d="M156.991 18.1573V17.9681H166.235V18.0816C166.16 18.1321 166.122 18.3466 166.122 18.7252C166.122 18.9523 166.147 19.3813 166.198 20.0122C166.248 20.6431 166.513 21.3118 166.993 22.0184L169.077 25.1224L171.388 21.9806C171.918 21.274 172.196 20.6431 172.221 20.0879C172.247 19.5075 172.272 19.1289 172.297 18.9523C172.272 18.4223 172.209 18.1321 172.108 18.0816V17.9681H177.336V18.1195C175.745 19.356 174.457 20.6178 173.471 21.9048L169.986 26.4851L173.585 31.8982C174.52 33.3366 175.934 35.0022 177.828 36.8948L177.79 37.0463H168.471V36.9327C168.546 36.8822 168.584 36.6677 168.584 36.2892C168.584 36.0621 168.559 35.6331 168.509 35.0022C168.458 34.3713 168.193 33.7025 167.713 32.9959L165.705 30.0055L163.394 33.1473C162.864 33.8539 162.586 34.4848 162.561 35.04C162.535 35.57 162.523 35.9107 162.523 36.0621C162.523 36.6677 162.586 36.9958 162.712 37.0463V37.1598H157.446V37.0084C159.088 35.6961 160.376 34.4344 161.31 33.223L164.796 28.6428L161.121 23.1162C160.085 21.5263 158.709 19.8734 156.991 18.1573Z"
    fill="#262626"
  />
  <path
    d="M180.261 20.3529C182.029 18.6116 184.352 17.741 187.232 17.741C190.136 17.741 192.308 18.6494 193.748 20.4664C195.187 22.2581 195.907 24.4663 195.907 27.0908H183.67C183.872 29.1601 184.453 30.8004 185.413 32.0117C186.398 33.1978 187.8 33.7909 189.618 33.7909C191.563 33.7909 193.533 33.059 195.528 31.5954L195.68 31.6711C195.099 33.2104 194.064 34.5605 192.573 35.7214C191.083 36.857 189.277 37.4248 187.156 37.4248C184.58 37.4248 182.344 36.5668 180.45 34.8508C178.556 33.1095 177.609 30.6742 177.609 27.545C177.609 24.5167 178.493 22.1194 180.261 20.3529ZM190.414 25.0467C190.313 21.1856 189.214 19.2551 187.118 19.2551C185.88 19.2551 184.984 19.8734 184.428 21.1099C183.872 22.3465 183.595 23.848 183.595 25.6145V26.1823L190.414 25.0467Z"
    fill="#262626"
  />
  <path
    d="M197.852 9.52675L204.482 8.76968V31.0654C204.482 31.6458 204.533 32.2893 204.634 32.9959C204.735 33.7025 204.836 34.2956 204.937 34.775C205.063 35.2545 205.177 35.7214 205.278 36.1756C205.404 36.6046 205.467 36.8444 205.467 36.8948V37.0463H197.966V36.8948C197.966 36.8444 198.017 36.6046 198.118 36.1756C198.244 35.7214 198.358 35.2545 198.459 34.775C198.585 34.2956 198.699 33.7025 198.8 32.9959C198.901 32.2893 198.951 31.6458 198.951 31.0654V15.394C198.951 13.779 198.585 11.8737 197.852 9.67816V9.52675Z"
    fill="#262626"
  />
  <path
    d="M208.003 34.1315C208.003 33.2231 208.319 32.4534 208.95 31.8225C209.607 31.1663 210.39 30.8383 211.299 30.8383C212.208 30.8383 212.979 31.1663 213.61 31.8225C214.267 32.4534 214.595 33.2231 214.595 34.1315C214.595 35.04 214.279 35.8097 213.648 36.4406C212.991 37.0967 212.208 37.4248 211.299 37.4248C210.39 37.4248 209.607 37.1093 208.95 36.4785C208.319 35.8223 208.003 35.04 208.003 34.1315Z"
    fill="#262626"
  />
  <path
    d="M217.88 36.1378C217.981 35.7088 218.082 35.2545 218.184 34.775C218.31 34.2956 218.423 33.7025 218.524 32.9959C218.626 32.2893 218.676 31.6458 218.676 31.0654V23.9489C218.676 22.6872 218.348 20.744 217.691 18.1195V17.9681H224.169V31.0654C224.169 31.5449 224.195 32.0622 224.245 32.6174C224.321 33.1473 224.409 33.6521 224.51 34.1315C224.611 34.611 224.7 35.0274 224.776 35.3807C224.851 35.7088 224.94 36.0368 225.041 36.3649L225.192 36.8948V37.0463H217.691V36.8948C217.691 36.8444 217.754 36.592 217.88 36.1378ZM217.691 11.6844C217.691 10.7507 218.032 9.95575 218.714 9.29962C219.421 8.61826 220.255 8.27758 221.214 8.27758C222.174 8.27758 222.995 8.61826 223.677 9.29962C224.359 9.95575 224.7 10.7507 224.7 11.6844C224.7 12.6434 224.346 13.4635 223.639 14.1449C222.957 14.801 222.149 15.1291 221.214 15.1291C220.255 15.1291 219.421 14.801 218.714 14.1449C218.032 13.4635 217.691 12.6434 217.691 11.6844Z"
    fill="#262626"
  />
  <path
    d="M227.148 27.4693C227.148 24.3401 228.083 21.9427 229.952 20.2771C231.846 18.5864 234.207 17.741 237.036 17.741C239.865 17.741 242.226 18.5864 244.121 20.2771C246.04 21.9679 247 24.3653 247 27.4693C247 30.5985 246.04 33.0338 244.121 34.775C242.201 36.5415 239.84 37.4248 237.036 37.4248C234.233 37.4248 231.884 36.5542 229.99 34.8129C228.095 33.0464 227.148 30.5985 227.148 27.4693ZM233.626 31.4818C233.854 32.6931 234.258 33.7278 234.839 34.5858C235.42 35.4438 236.152 35.8728 237.036 35.8728C238.299 35.8728 239.246 35.0526 239.878 33.4123C240.509 31.772 240.825 29.791 240.825 27.4693C240.825 25.1981 240.509 23.2676 239.878 21.6777C239.246 20.0626 238.299 19.2551 237.036 19.2551C235.773 19.2551 234.826 20.0626 234.195 21.6777C233.589 23.2676 233.286 25.1981 233.286 27.4693C233.286 28.933 233.399 30.2705 233.626 31.4818Z"
    fill="#262626"
  />
  <path
    d="M17.2154 33.3106C17.2154 34.5484 16.2111 35.5519 14.9722 35.5519C13.7333 35.5519 12.729 34.5484 12.729 33.3106C12.729 32.0727 13.7333 31.0692 14.9722 31.0692C16.2111 31.0692 17.2154 32.0727 17.2154 33.3106Z"
    fill="#DCDCDC"
  />
</svg>
